<svg width="41" height="40" viewBox="0 0 41 40" fill="none" xmlns="http://www.w3.org/2000/svg">
<path fill-rule="evenodd" clip-rule="evenodd" d="M11.2788 21.6666C18.0604 21.6666 18.3621 23.9666 18.3621 28.7499C18.3621 31.1466 18.3621 32.8516 17.3554 34.0999C16.1971 35.5382 14.0888 35.8333 11.2788 35.8333C8.46877 35.8333 6.36043 35.5382 5.2021 34.0999C4.19543 32.8516 4.19543 31.1483 4.19543 28.7916L5.44543 28.7499H4.19543C4.19543 23.9666 4.4971 21.6666 11.2788 21.6666ZM29.6121 21.6666C36.3938 21.6666 36.6954 23.9666 36.6954 28.7499C36.6954 31.1466 36.6954 32.8516 35.6888 34.0999C34.5304 35.5382 32.4221 35.8333 29.6121 35.8333C26.8021 35.8333 24.6938 35.5382 23.5354 34.0999C22.5288 32.8516 22.5288 31.1483 22.5288 28.7916L23.7788 28.7499H22.5288C22.5288 23.9666 22.8304 21.6666 29.6121 21.6666ZM11.6224 24.1673L11.2788 24.1666C6.93048 24.1666 6.70749 24.4786 6.69605 28.1283L6.69675 29.5502C6.70465 31.0018 6.75996 32.0504 7.1471 32.5333C7.58877 33.0799 8.90043 33.3333 11.2788 33.3333C13.6571 33.3333 14.9688 33.0782 15.4104 32.5316C15.8621 31.9699 15.8621 30.6366 15.8621 28.7899C15.8621 24.6229 15.8621 24.1869 11.6224 24.1673ZM29.9557 24.1673L29.6121 24.1666C25.2638 24.1666 25.0408 24.4786 25.0294 28.1283L25.0301 29.5502C25.038 31.0018 25.0933 32.0504 25.4804 32.5333C25.9221 33.0799 27.2338 33.3333 29.6121 33.3333C31.9904 33.3333 33.3021 33.0782 33.7438 32.5316C34.1954 31.9699 34.1954 30.6366 34.1954 28.7899C34.1954 24.6229 34.1954 24.1869 29.9557 24.1673ZM11.2788 3.33325C18.0604 3.33325 18.3621 5.63325 18.3621 10.4166C18.3621 12.8133 18.3621 14.5183 17.3554 15.7666C16.1971 17.2049 14.0888 17.4999 11.2788 17.4999C8.46877 17.4999 6.36043 17.2049 5.2021 15.7666C4.19543 14.5183 4.19543 12.8149 4.19543 10.4583L5.44543 10.4166H4.19543C4.19543 5.63325 4.4971 3.33325 11.2788 3.33325ZM29.6121 3.33325C36.3938 3.33325 36.6954 5.63325 36.6954 10.4166C36.6954 12.8133 36.6954 14.5183 35.6888 15.7666C34.5304 17.2049 32.4221 17.4999 29.6121 17.4999C26.8021 17.4999 24.6938 17.2049 23.5354 15.7666C22.5288 14.5183 22.5288 12.8149 22.5288 10.4583L23.7788 10.4166H22.5288C22.5288 5.63325 22.8304 3.33325 29.6121 3.33325ZM11.6224 5.834L11.2788 5.83325C6.93048 5.83325 6.70749 6.14527 6.69605 9.795L6.69675 11.2169C6.70465 12.6685 6.75996 13.7171 7.1471 14.1999C7.58877 14.7466 8.90043 14.9999 11.2788 14.9999C13.6571 14.9999 14.9688 14.7449 15.4104 14.1983C15.8621 13.6366 15.8621 12.3033 15.8621 10.4566C15.8621 6.28958 15.8621 5.85361 11.6224 5.834ZM29.9557 5.834L29.6121 5.83325C25.2638 5.83325 25.0408 6.14527 25.0294 9.795L25.0301 11.2169C25.038 12.6685 25.0933 13.7171 25.4804 14.1999C25.9221 14.7466 27.2338 14.9999 29.6121 14.9999C31.9904 14.9999 33.3021 14.7449 33.7438 14.1983C34.1954 13.6366 34.1954 12.3033 34.1954 10.4566C34.1954 6.28958 34.1954 5.85361 29.9557 5.834Z" fill="#0F0F0F"/>
</svg>
