<?xml version="1.0" encoding="UTF-8"?> <svg xmlns="http://www.w3.org/2000/svg" width="41" height="40" viewBox="0 0 41 40" fill="none"> <path fill-rule="evenodd" clip-rule="evenodd" d="M11.2791 21.6666C18.0608 21.6666 18.3625 23.9666 18.3625 28.7499C18.3625 31.1466 18.3625 32.8516 17.3558 34.0999C16.1975 35.5382 14.0891 35.8333 11.2791 35.8333C8.46913 35.8333 6.3608 35.5382 5.20247 34.0999C4.1958 32.8516 4.1958 31.1483 4.1958 28.7916L5.4458 28.7499H4.1958C4.1958 23.9666 4.49747 21.6666 11.2791 21.6666ZM29.6125 21.6666C36.3941 21.6666 36.6958 23.9666 36.6958 28.7499C36.6958 31.1466 36.6958 32.8516 35.6891 34.0999C34.5308 35.5382 32.4225 35.8333 29.6125 35.8333C26.8025 35.8333 24.6941 35.5382 23.5358 34.0999C22.5291 32.8516 22.5291 31.1483 22.5291 28.7916L23.7791 28.7499H22.5291C22.5291 23.9666 22.8308 21.6666 29.6125 21.6666ZM11.2791 3.33325C18.0608 3.33325 18.3625 5.63325 18.3625 10.4166C18.3625 12.8133 18.3625 14.5183 17.3558 15.7666C16.1975 17.2049 14.0891 17.4999 11.2791 17.4999C8.46913 17.4999 6.3608 17.2049 5.20247 15.7666C4.1958 14.5183 4.1958 12.8149 4.1958 10.4583L5.4458 10.4166H4.1958C4.1958 5.63325 4.49747 3.33325 11.2791 3.33325ZM29.6125 3.33325C36.3941 3.33325 36.6958 5.63325 36.6958 10.4166C36.6958 12.8133 36.6958 14.5183 35.6891 15.7666C34.5308 17.2049 32.4225 17.4999 29.6125 17.4999C26.8025 17.4999 24.6941 17.2049 23.5358 15.7666C22.5291 14.5183 22.5291 12.8149 22.5291 10.4583L23.7791 10.4166H22.5291C22.5291 5.63325 22.8308 3.33325 29.6125 3.33325Z" fill="#FF7147"></path> </svg> 