<svg width="58" height="24" viewBox="0 0 58 24" fill="none" xmlns="http://www.w3.org/2000/svg">
<path d="M21.4354 2.58198C20.9352 2.0686 20.1949 1.87734 19.5046 2.07866L3.408 6.75952C2.6797 6.96186 2.16349 7.54269 2.02443 8.28055C1.88237 9.0315 2.37858 9.98479 3.02684 10.3834L8.0599 13.4768C8.57611 13.7939 9.24238 13.7144 9.66956 13.2835L15.4329 7.4843C15.723 7.18231 16.2032 7.18231 16.4934 7.4843C16.7835 7.77623 16.7835 8.24935 16.4934 8.55134L10.72 14.3516C10.2918 14.7814 10.2118 15.4508 10.5269 15.9702L13.6022 21.0538C13.9623 21.6577 14.5826 22 15.2628 22C15.3429 22 15.4329 22 15.513 21.9899C16.2933 21.8893 16.9135 21.3558 17.1436 20.6008L21.9156 4.52479C22.1257 3.84028 21.9356 3.09537 21.4354 2.58198Z" fill="#5199EE"/>
<path d="M46.0126 9C44.3556 9 43 10.3481 43 11.9987C43 13.6494 44.3556 15 46.0126 15C47.6695 15 49 13.6494 49 11.9987C49 10.3481 47.6695 9 46.0126 9Z" fill="url(#paint0_radial_132_3015)"/>
<path d="M46.0126 9C44.3556 9 43 10.3481 43 11.9987C43 13.6494 44.3556 15 46.0126 15C47.6695 15 49 13.6494 49 11.9987C49 10.3481 47.6695 9 46.0126 9Z" fill="url(#paint1_radial_132_3015)"/>
<path fill-rule="evenodd" clip-rule="evenodd" d="M50.3402 2C53.7302 2 56.0002 4.38 56.0002 7.92V16.09C56.0002 19.62 53.7302 22 50.3402 22H41.6702C38.2802 22 36.0002 19.62 36.0002 16.09V7.92C36.0002 4.38 38.2802 2 41.6702 2H50.3402ZM52.3838 4.39258C51.7238 4.39258 51.1838 4.93158 51.1838 5.59158C51.1838 6.25158 51.7238 6.79158 52.3838 6.79158C53.0438 6.79158 53.5738 6.25158 53.5738 5.59158C53.5738 4.93158 53.0438 4.39258 52.3838 4.39258ZM40.3838 11.8903C40.3838 8.86403 42.8691 6.39258 45.9068 6.39258C48.9445 6.39258 51.3838 8.86403 51.3838 11.8903C51.3838 14.9165 48.9445 17.3926 45.9068 17.3926C42.8691 17.3926 40.3838 14.9165 40.3838 11.8903Z" fill="url(#paint2_radial_132_3015)"/>
<path fill-rule="evenodd" clip-rule="evenodd" d="M50.3402 2C53.7302 2 56.0002 4.38 56.0002 7.92V16.09C56.0002 19.62 53.7302 22 50.3402 22H41.6702C38.2802 22 36.0002 19.62 36.0002 16.09V7.92C36.0002 4.38 38.2802 2 41.6702 2H50.3402ZM52.3838 4.39258C51.7238 4.39258 51.1838 4.93158 51.1838 5.59158C51.1838 6.25158 51.7238 6.79158 52.3838 6.79158C53.0438 6.79158 53.5738 6.25158 53.5738 5.59158C53.5738 4.93158 53.0438 4.39258 52.3838 4.39258ZM40.3838 11.8903C40.3838 8.86403 42.8691 6.39258 45.9068 6.39258C48.9445 6.39258 51.3838 8.86403 51.3838 11.8903C51.3838 14.9165 48.9445 17.3926 45.9068 17.3926C42.8691 17.3926 40.3838 14.9165 40.3838 11.8903Z" fill="url(#paint3_radial_132_3015)"/>
<defs>
<radialGradient id="paint0_radial_132_3015" cx="0" cy="0" r="1" gradientUnits="userSpaceOnUse" gradientTransform="translate(52.9002 24.7) rotate(-115.776) scale(27.2737 40.5665)">
<stop offset="0.24392" stop-color="#FF1B90"/>
<stop offset="0.436673" stop-color="#F80261"/>
<stop offset="0.688476" stop-color="#ED00C0"/>
<stop offset="0.776787" stop-color="#C500E9"/>
<stop offset="0.893155" stop-color="#7017FF"/>
</radialGradient>
<radialGradient id="paint1_radial_132_3015" cx="0" cy="0" r="1" gradientUnits="userSpaceOnUse" gradientTransform="translate(43.2502 21.31) rotate(-57.4396) scale(11.8174 12.2918)">
<stop stop-color="#FFD600"/>
<stop offset="0.484375" stop-color="#FF6930"/>
<stop offset="0.734375" stop-color="#FE3B36"/>
<stop offset="1" stop-color="#FE3B36" stop-opacity="0"/>
</radialGradient>
<radialGradient id="paint2_radial_132_3015" cx="0" cy="0" r="1" gradientUnits="userSpaceOnUse" gradientTransform="translate(52.9002 24.7) rotate(-115.776) scale(27.2737 40.5665)">
<stop offset="0.24392" stop-color="#FF1B90"/>
<stop offset="0.436673" stop-color="#F80261"/>
<stop offset="0.688476" stop-color="#ED00C0"/>
<stop offset="0.776787" stop-color="#C500E9"/>
<stop offset="0.893155" stop-color="#7017FF"/>
</radialGradient>
<radialGradient id="paint3_radial_132_3015" cx="0" cy="0" r="1" gradientUnits="userSpaceOnUse" gradientTransform="translate(43.2502 21.31) rotate(-57.4396) scale(11.8174 12.2918)">
<stop stop-color="#FFD600"/>
<stop offset="0.484375" stop-color="#FF6930"/>
<stop offset="0.734375" stop-color="#FE3B36"/>
<stop offset="1" stop-color="#FE3B36" stop-opacity="0"/>
</radialGradient>
</defs>
</svg>
