<svg width="30" height="30" viewBox="0 0 30 30" fill="none" xmlns="http://www.w3.org/2000/svg">
<g id="iconamoon:shopping-card-fill">
<path id="Vector" fill-rule="evenodd" clip-rule="evenodd" d="M3.75 2.5C3.41848 2.5 3.10054 2.6317 2.86612 2.86612C2.6317 3.10054 2.5 3.41848 2.5 3.75C2.5 4.08152 2.6317 4.39946 2.86612 4.63388C3.10054 4.8683 3.41848 5 3.75 5H5.0925L5.2925 7.59625L6.0625 17.6175C6.1386 18.6056 6.60269 19.5233 7.35338 20.1702C8.10406 20.8172 9.08029 21.1406 10.0688 21.07L23.0125 20.145C23.8871 20.0826 24.7122 19.7156 25.3443 19.1079C25.9765 18.5002 26.3756 17.6902 26.4725 16.8188L27.4925 7.6375C27.5118 7.46281 27.4941 7.286 27.4405 7.11862C27.3869 6.95124 27.2985 6.79705 27.1813 6.66611C27.064 6.53518 26.9205 6.43044 26.76 6.35874C26.5995 6.28704 26.4258 6.24999 26.25 6.25H7.69625L7.49625 3.65375C7.47201 3.33983 7.33019 3.04663 7.09915 2.83273C6.8681 2.61884 6.56485 2.50001 6.25 2.5H3.75ZM8.75 25.625C8.75 25.1277 8.94754 24.6508 9.29917 24.2992C9.65081 23.9475 10.1277 23.75 10.625 23.75H10.6375C11.1348 23.75 11.6117 23.9475 11.9633 24.2992C12.315 24.6508 12.5125 25.1277 12.5125 25.625V25.6375C12.5125 26.1348 12.315 26.6117 11.9633 26.9633C11.6117 27.315 11.1348 27.5125 10.6375 27.5125H10.625C10.1277 27.5125 9.65081 27.315 9.29917 26.9633C8.94754 26.6117 8.75 26.1348 8.75 25.6375V25.625ZM21.875 23.75C21.3777 23.75 20.9008 23.9475 20.5492 24.2992C20.1975 24.6508 20 25.1277 20 25.625V25.6375C20 26.1348 20.1975 26.6117 20.5492 26.9633C20.9008 27.315 21.3777 27.5125 21.875 27.5125H21.8875C22.3848 27.5125 22.8617 27.315 23.2133 26.9633C23.565 26.6117 23.7625 26.1348 23.7625 25.6375V25.625C23.7625 25.1277 23.565 24.6508 23.2133 24.2992C22.8617 23.9475 22.3848 23.75 21.8875 23.75H21.875Z" fill="black" fill-opacity="0.4"/>
</g>
</svg>
