<svg width="30" height="30" viewBox="0 0 30 30" fill="none" xmlns="http://www.w3.org/2000/svg">
<g id="Huge-icon/interface/outline/login 01">
<path id="Vector" d="M18.75 12.8329L17.1339 14.4491C16.6457 14.9372 16.6457 15.7287 17.1339 16.2168L18.75 17.8329M17.5 15.3329L25 15.3329M5 21.5829V9.08291M20 21.5829C20 22.9636 18.8807 24.0829 17.5 24.0829H12.5M20 9.08291C20 7.7022 18.8807 6.58291 17.5 6.58291H12.5M6.11325 24.8251L8.61325 26.4917C10.2746 27.5993 12.5 26.4084 12.5 24.4116V6.2542C12.5 4.25747 10.2746 3.06649 8.61325 4.17408L6.11325 5.84075C5.41775 6.30441 5 7.08499 5 7.92087V22.745C5 23.5808 5.41775 24.3614 6.11325 24.8251Z" stroke="black" stroke-width="1.5" stroke-linecap="round"/>
</g>
</svg>
