<svg width="30" height="30" viewBox="0 0 30 30" fill="none" xmlns="http://www.w3.org/2000/svg">
<g id="Huge-icon/interface/outline/unlock">
<path id="Vector" d="M20 10H10C7.23858 10 5 12.2386 5 15V22.5C5 25.2614 7.23858 27.5 10 27.5H20C22.7614 27.5 25 25.2614 25 22.5V15C25 12.2386 22.7614 10 20 10ZM20 10L20 7.5C20 4.73858 17.7615 2.5 15 2.5C13.1493 2.5 11.5335 3.5055 10.6689 5M17.5 18.75C17.5 20.1307 16.3807 21.25 15 21.25C13.6193 21.25 12.5 20.1307 12.5 18.75C12.5 17.3693 13.6193 16.25 15 16.25C16.3807 16.25 17.5 17.3693 17.5 18.75Z" stroke="black" stroke-opacity="0.4" stroke-width="1.5" stroke-linecap="round" stroke-linejoin="round"/>
</g>
</svg>
